<svg id="Layer_1" data-name="Layer 1" xmlns="http://www.w3.org/2000/svg" viewBox="0 0 1338.38 818.49"><defs><style>.cls-1{fill:#231f20;}.cls-2{fill:#a163a9;}</style></defs><title>The Frances Ushedo vector file</title><path class="cls-1" d="M611.17,649.59c-.19.37-.57.56-.75.75a.83.83,0,0,1-.94,0,1.45,1.45,0,0,1-.75-.75.83.83,0,0,1,0-.94c.93-2.44-.57-4.51-4.51-6-10.7-3.56-30.41-5.07-59.32-4.13-29.1.94-57.63,2.82-85.61,5.82s-46,5.82-54.06,8.64h.37a94.08,94.08,0,0,1,11.46-1.5,76,76,0,0,1,20.27.93,40.92,40.92,0,0,1,20.27,9.77Q469.72,674.83,470,699.9c5.64-15.21,11.08-27.78,16.52-37.92,5.26-10,9.77-15,13.52-15a2.52,2.52,0,0,1,1.5.56,2.5,2.5,0,0,1,.57,1.5,2.13,2.13,0,0,1-.57,1.51,2.52,2.52,0,0,1-1.5.56c-3.38,0-7.7,5.82-13.14,17.46-5.44,11.83-11.26,26.09-17.08,42.8-.38,4.69-.94,9.39-1.5,14.08,8.26-1.13,16.33-1.88,24-2.44,7.7-.38,14.08,0,19,1.31s6.95,3.76,6.2,7.33c-.19.75-.56,1.12-.75,1.12-.38,0-.56-.37-.38-1.31q.85-4.23-6.19-5.63a85.17,85.17,0,0,0-18.77-.38c-7.7.56-15.4,1.5-23.47,2.82a287.29,287.29,0,0,1-12,50.5c-5.44,16.14-10.88,28.53-16.14,37.17,0,.37,0,.75-.19.93-.56.76-.94,1.32-1.5,1.51-3.19.94-3.57-3.2-1.31-12.77,1.69-6.76,4.13-16,7.32-27.41,4.32-14.83,9.38-31.16,15.2-48.62q-9.57,1.7-15.77,2.82c-4.13.75-6.38,1.12-6.57,1.31a1.4,1.4,0,0,1-.93-.38l-.57-.56a1.22,1.22,0,0,1,.19-1.12,2.7,2.7,0,0,1,.75-.57c.19,0,2.63-.37,7.13-1.31,4.32-.94,10-1.88,16.71-3,2.44-7.32,5.07-14.26,7.7-21.21.56-18.58-3.19-32.66-11.64-42.24-6.38-5.82-14.45-9.2-24.4-10.14s-18.78-.37-26.47,1.88a3.22,3.22,0,0,1-2.82-.56,1.78,1.78,0,0,1-.75-2.07c.19-.93.94-1.5,2.25-2.06q15.5-4.79,58.57-9c28.73-2.63,57.45-4.32,86-4.88s47.5.75,56.7,3.75C610.79,642.27,612.67,645.46,611.17,649.59ZM454.6,775a287.92,287.92,0,0,0,11.08-46.37,6.3,6.3,0,0,0-1.88.19c-6,18.21-11.26,34.92-15.77,50.5-3.19,11.26-5.63,20.27-7.32,27.22l-1.13,4.5C444.65,801.84,449.53,789.82,454.6,775Zm11.45-49.18c.38-2.07.75-4.32.94-6.39-.75,2.26-1.5,4.51-2.25,6.57A3.8,3.8,0,0,1,466.05,725.81Z"/><path class="cls-1" d="M558.23,731.06a26.8,26.8,0,0,1-10.7-3.56A42.08,42.08,0,0,1,541,742.89c-4.13,5.44-7.7,7.32-10.7,5.82s-3.75-5.44-2.25-11.83a59.31,59.31,0,0,1,5.07-10.51,22,22,0,0,1,5.82-6.76.82.82,0,0,1,.93,0,.83.83,0,0,1,0,.94,24.71,24.71,0,0,0-6,7.51,34.33,34.33,0,0,0-3.94,9.57c-.94,4.51-.38,7,1.5,7.51s3.94-.75,6.38-3.94a27.25,27.25,0,0,0,4.13-7.7,49.94,49.94,0,0,0,2.44-8.26c-.75-.75-1.31-1.5-1.88-2.06a7.84,7.84,0,0,1-1.31-2.07c-.94-2.63-.94-4.5,0-5.82a3.69,3.69,0,0,1,3.94-1.12c1.5.37,2.44,1.69,3,4.13a22.07,22.07,0,0,1-.37,7.69c2.82,2.07,6.57,3.38,10.89,4.32a28.1,28.1,0,0,0,11.07.38.72.72,0,0,1,.57.18c.18.19.18.19.18.38-.18.19-.37.19-.56.38A62.77,62.77,0,0,1,558.23,731.06ZM544.9,719.42c-.18-1.12-.37-1.87-.75-2.06-.56-.19-.94-.19-1.12.19a5.05,5.05,0,0,0,.18,2.81,6.86,6.86,0,0,0,1.51,2.82A13.66,13.66,0,0,0,544.9,719.42Z"/><path class="cls-1" d="M627.5,731.44c.19.19.38.37.38.56a1,1,0,0,1-.56.75c-9.58,6.38-16.71,10.14-21.4,11.08-4.88.94-8.08.37-9.58-2.07-1.69-2.44-2.25-5.44-1.69-9.38a56,56,0,0,1,2.07-10.33,59.83,59.83,0,0,0-3.76,5.07c-3.38,4.69-7.32,9.39-11.64,14.27-4.5,5.07-8.63,7.51-12.2,7.32-2.25-.56-3-3-2.06-7.51a86.77,86.77,0,0,1,4.5-14.08c2.07-4.88,3.57-8.45,4.51-10.51.18-.38.18-.57.37-.75a2.57,2.57,0,0,1,3.76-1.13,1.73,1.73,0,0,1,.37,1.88,9.11,9.11,0,0,1-.94,2.25c-1.31,2.63-2.81,6-4.69,10.14a100.26,100.26,0,0,0-4.5,11.45c-1.13,3.57-1.32,5.63-.38,6.57,1.31.75,3.38-.19,6.19-2.63a78.75,78.75,0,0,0,8.45-9.76c3-3.94,5.63-7.51,8.08-11.08q3.38-5.34,4.5-7.32a3.68,3.68,0,0,1,2.44-1.69,3.27,3.27,0,0,1,2.63.57,1.6,1.6,0,0,1,.56,1.69,73,73,0,0,0-3.94,9.76,31.15,31.15,0,0,0-1.88,11.82c.19,3.57,2.63,5.26,6.95,4.89,4.32-.19,11.83-4.14,22.53-11.46A3.35,3.35,0,0,1,627.5,731.44Z"/><path class="cls-1" d="M683.83,731.44l.56.56c0,.19-.19.38-.56.56q-16.07,10.71-23.1,11.27c-4.69.37-7.5-.94-8.44-4.13a30,30,0,0,1-1.13-10.14,22.35,22.35,0,0,0,0-5.07c-.19-1.31-.75-1.88-1.5-2.06-1.5,0-3.57,1.31-6.38,3.75a76.44,76.44,0,0,0-8.45,8.82c-3,3.38-5.45,6.39-7.51,9s-3.19,4.13-3.38,4.31-.38.38-.56.38a.83.83,0,0,1-.94,0,1,1,0,0,1-1.32-.56c-.37-.38-.37-.94-.18-1.88.18-.56.75-2.25,1.87-5.07.94-2.82,2.26-6.2,4-10s3.37-7.13,5.06-10.14a7.13,7.13,0,0,1,2.63-2.25,5.58,5.58,0,0,1,2.07-.56c.75.18,1.12.37,1.31.94a5.77,5.77,0,0,1-.37,1.69,4.25,4.25,0,0,1-.94,1.5c-.38.56-.75.75-.94.75H635c-.19,0-.19,0-.38.19a3.66,3.66,0,0,0-.56.93c-.94,2.07-1.88,4.32-3.19,7-1.32,2.82-2.44,5.44-3.38,8.07,2.44-3.19,5.07-6.38,8.07-9.76a60.77,60.77,0,0,1,8.63-8.45c2.82-2.06,5.07-3,6.76-2.44,1.32.57,2.07,1.69,2.44,3.57a39,39,0,0,1,.19,6.76,27.83,27.83,0,0,0,1.13,10.13c.94,2.82,3.38,4,7.69,3.38,4.13-.56,11.08-4.13,20.65-10.7A1.5,1.5,0,0,1,683.83,731.44Z"/><path class="cls-1" d="M714.61,709.85a357.61,357.61,0,0,0-10.32,34.54q-3.94,15.76-2.26,19.71a.94.94,0,0,1-.37,1.69c-.19.19-.56.38-.75.19a1,1,0,0,1-.94-.56h-.19c-1.12-2.63-.56-8.64,1.5-17.84a298.46,298.46,0,0,1,9-31.16c-1.12,1.69-2.25,3.38-3.56,5.07a2.14,2.14,0,0,1,.19,1.5,1.72,1.72,0,0,1-1.13,1.13,2.13,2.13,0,0,1-.94.18c-1.31,2.07-3.57,4.89-6.38,8.45a78.61,78.61,0,0,1-9,10.14c-3.19,3.19-5.82,4.69-8.08,4.51-2.44-.57-3-3-1.68-7.14a44,44,0,0,1,6.38-13.14,31.33,31.33,0,0,1,10.32-9.76c3.76-2.07,7-1.32,9.76,2.25,2.07-2.81,4.13-6,6.2-9.2,3.94-11.07,7.7-21,11.45-29.47s6.76-13.52,8.82-15.21h.19a2.64,2.64,0,0,1,2.26-.37c1.5.75,1.5,3.19-.19,7.13a116.83,116.83,0,0,1-6,13C724.94,693,720.06,701,714.61,709.85Zm-25,30c2.82-2.82,5.64-6,8.45-9.39s4.51-5.82,5.45-7.13c-1.32-2.26-2.82-3.2-4.7-2.63s-3.75,2.06-5.82,4.32a58.65,58.65,0,0,0-5.63,7.69,46.48,46.48,0,0,0-3.75,7.51c-.94,2.25-.94,3.57-.38,3.94C684.58,744.39,686.64,742.89,689.64,739.89Zm37.17-60.45c-3.19,6.57-6.38,14.26-9.76,23.28q7.89-13.25,13-23.66c3.38-6.94,4.69-10.51,4.13-11.07H734C732.26,669.11,729.82,672.87,726.81,679.44Z"/><path class="cls-1" d="M786.51,731.44a1.12,1.12,0,0,1,.19.75,1,1,0,0,1-.56.94q-18.58,10.14-27,9.57c-5.82-.37-9.2-2.63-10.51-6.57a27,27,0,0,1-1.13-12.2,220,220,0,0,1-19,21.21c-4.13,3.94-6.94,4.88-8.44,3-.94-1.13-1.13-3.38-.19-6.57a53.85,53.85,0,0,1,4.5-10.52,78.51,78.51,0,0,1,6.76-9.95,19.16,19.16,0,0,1,7.51-6c3.19-1.13,6-.19,8.07,3,.94-1.31,1.5-2.25,1.69-2.44l.19-.19a2.63,2.63,0,0,1,1.5-.94,2.45,2.45,0,0,1,1.5.57,5.14,5.14,0,0,1,.75,1.5v.56h-.18v.19q-.28,1.13-1.13,5.07a33.82,33.82,0,0,0-.56,8.82,10.45,10.45,0,0,0,3.38,7.51c2.06,2.06,5.44,2.63,10.51,1.69,5.07-.75,12-3.76,21-8.82C786,731.44,786.32,731.25,786.51,731.44Zm-59,9c1.69-1.88,3.76-4.13,6.2-7,2.44-2.63,4.51-5.07,6.57-7.51,1.88-2.25,3-3.75,3.57-4.31-1.13-2.26-2.44-3.2-3.95-2.63a15.65,15.65,0,0,0-6,5.07,57.2,57.2,0,0,0-6,9c-.38.75-.94,1.87-1.5,3.19a23.4,23.4,0,0,0-1.69,4.13c-.56,1.31-.56,2.06-.38,2.44C724.56,743.08,725.69,742.33,727.56,740.45Z"/><path class="cls-1" d="M873.43,692.2a3,3,0,0,1-1.31,1.69,2.26,2.26,0,0,1-1.88.19c-.56-.19-.56-.75-.19-1.69q-.84-3.09-19.71-3.94c-12.58-.38-27-.19-43.36.37-4.7,10.33-10.14,23.28-16.52,39s-11.64,30.23-15.59,43.55c-4.13,13.33-5.06,21.4-3,24.41.38.19.56.56.75.75a2.78,2.78,0,0,1-.37,1.13,1.51,1.51,0,0,1-.75.37,1.23,1.23,0,0,1-1.13-.19c-2.25-.56-2.82-4.13-1.69-11.07a200.78,200.78,0,0,1,6.76-26.1c3.19-10.51,7.13-21.59,11.45-33.41v-.19c4.13-11.45,2.44-20.46-4.88-27.22s-17.84-9.2-31.54-7.32c-.38.19-.75.19-.94.37-1.69.94-3.19,1.51-4.32,1.32a2.73,2.73,0,0,1-2.44-.94,1.73,1.73,0,0,1-.37-1.88,1.92,1.92,0,0,1,1.5-1.12q4.79-1.41,21.4-2.82c11.08-.75,23.47-1.32,37.55-1.69,3-7.32,5.44-13,7.13-17.27,1.69-3.38,3.19-4.88,4.51-4.32s1.5,2.63.75,6a41.1,41.1,0,0,1-2.63,6.94c-1.13,2.44-2.25,4.51-3.19,6.39-.38.94-.75,1.5-.94,2.06,15.39-.37,29.28-.19,41.49.38q18.3,1.13,22.52,3.94C873.43,690.89,873.62,691.64,873.43,692.2ZM801.53,689c-13.33.56-25,1.13-34.92,1.88,15.59,3,23.66,12,23.85,26.84C794.4,707.22,798,697.65,801.53,689Z"/><path class="cls-1" d="M845.65,731.44c.18.19.37.37.37.56a1.37,1.37,0,0,1-.75,1.13c-9.2,6.57-16.14,10.89-21.21,13s-9,2.82-11.45,2.25c-3.19-.93-4.7-3-4.7-6.38a30.82,30.82,0,0,1,1.88-11.08,63,63,0,0,1,3.94-9.57c1.69-3.19,3.38-4.69,4.7-4.5,1.31.37,1.12,2.62-.57,6.57-1.12,2.44-2.44,5.44-3.75,8.63a49.34,49.34,0,0,0-2.82,9c-.56,2.82-.18,4.51,1.13,5.45,5.44,2.06,16.14-2.63,31.73-14.46A3,3,0,0,1,845.65,731.44Zm-24.6-19c-.93.37-1.68.37-2.06-.19-.56-.56-.38-1.5.19-3.19a24.12,24.12,0,0,1,1.87-2.82,2.93,2.93,0,0,1,2.07-1.31,1.71,1.71,0,0,1,1.13,1.12,4.71,4.71,0,0,1-.19,2.26,15.42,15.42,0,0,1-.75,2.25A4.44,4.44,0,0,1,821.05,712.48Z"/><path class="cls-1" d="M940.64,731.44c.19.19.37.19.56.37a1,1,0,0,1-.56.75q-16,10.71-23.09,11.27c-4.7.37-7.51-1.13-8.45-4.32A30.24,30.24,0,0,1,908,729.37a20.81,20.81,0,0,0,0-4.88c-.18-1.31-.75-1.88-1.5-2.06-1.5-.19-3.57,1.12-6.38,3.56a76.6,76.6,0,0,0-8.45,8.83c-3,3.56-5.44,6.57-7.51,9.2s-3.19,3.94-3.38,4.13l-.56.56a.83.83,0,0,1-.94,0,1.46,1.46,0,0,1-1.31-.56c-.38-.38-.38-.94-.19-1.88a31.3,31.3,0,0,1,1.87-4.51q1.7-3.94,4.51-9.57c1.69-3.76,3.57-7.32,5.45-10.89A73.67,73.67,0,0,1,873.81,726c-5.82,1.32-10.33,1.32-13.71,0a34.51,34.51,0,0,1-2.25,8.08,44.49,44.49,0,0,1-3.76,7.32c-3.56,4.69-6.75,6.19-9.19,4.88-2.63-1.32-3.2-4.69-1.88-10.14a37.29,37.29,0,0,1,4.32-9.2c1.69-2.81,3.37-4.88,4.88-5.82a.66.66,0,1,1,.94.94,20.79,20.79,0,0,0-5.26,6.57,26.55,26.55,0,0,0-3.38,8.07c-.75,3.95-.38,6,1.31,6.39q2.53.84,5.64-3.38c.56-.94,1.5-2.44,2.62-4.51a67.62,67.62,0,0,0,2.63-6.57c.57-2.25.57-3.75,0-4.69-1.5-1.32-2.25-2.63-2.06-3.76a2.47,2.47,0,0,1,1.5-2.06,2.92,2.92,0,0,1,2.63.75q1.41,1.13,1.69,4.51c.18,1.31,3,2.06,8.63,2.06,5.45.19,12.58-1.69,21-5.26.75-1.31,1.5-2.62,2.25-3.75a5.1,5.1,0,0,1,2.44-2.44,3.56,3.56,0,0,1,2.25-.38c.75,0,1.13.38,1.13.94a3.65,3.65,0,0,1-.56,1.88,6.65,6.65,0,0,1-1.13,1.69h-.19c-.18.19-.18.37-.37.37a3.12,3.12,0,0,1-1.13.57c-.19.19-.19.19-.19.37-.94,2.07-2.25,4.88-3.94,8.08s-3.19,6.38-4.88,9.57a112,112,0,0,1,11.83-13.14c4.31-4.13,7.69-6,10.14-5.45,1.31.57,2.06,1.69,2.44,3.76a40.12,40.12,0,0,1,.18,6.76,27.58,27.58,0,0,0,1.13,10c.94,2.81,3.38,3.94,7.51,3.38s11.07-4.13,20.84-10.7A1.1,1.1,0,0,1,940.64,731.44Z"/><path class="cls-2" d="M1113.3,157.29a83.13,83.13,0,0,1,9.07,0c15.53.82,30.3,5.55,44.24,12.18a110.13,110.13,0,0,0-31.31-13.37c-23-5.63-46.74-1.91-68.27,7.22-45.63,19.34-76.9,58.51-112.82,90.89a265.34,265.34,0,0,1-29,23.1c-10.51,7.1-21.83,13.71-34.22,16.82-11.37,2.86-23.16,2-33.53-3.64a46,46,0,0,1-12.59-10c.32-.52.66-1,1-1.55,6.6-10.93,13.37-22.94,14.89-35.82.7-6,.22-12.92-3.05-18.13-2.54-4-7.2-7.79-12.24-6.32s-8.47,8.22-10.54,12.73a50,50,0,0,0-4.38,16.76,47,47,0,0,0,9.07,32.09l.42.53c-5.23,8.13-11.29,15.74-18.81,21.87-18.29,14.91-42.12,16.94-64.75,15.16a163.51,163.51,0,0,1-27.75-4.33c-8.91-2.29-18.11-5.61-25.24-11.61-9-7.57-11.85-18.81-13.32-30a324,324,0,0,1-2.7-36.82c-.41-25,2.37-50.36,10.55-74.13a155.56,155.56,0,0,1,7.27-17.63c2.5-5.13,5.17-10.43,9.12-14.61,4.62-4.89,10.36-6.58,17-6.37,6.3.2,12.53,1.44,18.84.65,21.25-2.66,35.32-22.35,45.6-39.25,6.08-10,12.34-21.18,22.65-27.43,9-5.46,21.79-6.85,29.55,1.5,6.87,7.39,6.37,18.89,4.71,28.14-2,11.49-6.13,22.7-9.67,33.8-15.67,49.09-35.32,98.13-70.63,136.6A311.71,311.71,0,0,1,744.47,283c-2.14,1.82-4.3,3.59-6.48,5.36-3.68.53-7.37,1-11.07,1.52-3.37.47-6.74,1-10.07,1.73-3,.65-6.28,1.23-9,2.6-5.07,2.55-3.39,8.39.81,10.83,5.19,3,12,.5,16.65-2.29,5.05-3,9.69-6.89,14.26-10.59l.43-.06c12-1.69,23.54-4.82,34-11.12a80.41,80.41,0,0,0,23.53-21.58c1.5-2.06-1.92-4-3.41-2a75.89,75.89,0,0,1-28.43,23.56,79.08,79.08,0,0,1-20,6.14c18.91-15.84,36.34-33.74,50.37-54.07,15.38-22.27,27-47,36.75-72.21C837.78,148,842.22,135,846.4,122c3.84-12,8.34-24.1,10.34-36.54,1.53-9.58,1.7-20.56-4.42-28.68C845.63,47.87,834,46,823.82,49.38c-11.46,3.77-19.38,13.23-25.76,23-6.5,10-12.12,20.41-20.07,29.36-7.46,8.39-17,15.94-28.54,17.23-6.5.74-13-.74-19.47-.76-6.26,0-12,1.74-16.75,5.94-4.38,3.89-7.39,9.13-10,14.29a164.09,164.09,0,0,0-7.72,17.62,187.24,187.24,0,0,0-9.5,38c-3.82,26.13-3.18,53,.38,79.1,1.54,11.33,4.6,22.77,13.4,30.67,7.09,6.36,16.19,10.13,25.25,12.7a158.27,158.27,0,0,0,29.57,5c11.07,1,22.16,1.29,33.18-.48,12.28-2,24.24-6.51,34.18-14.07,8.32-6.33,15-14.42,20.73-23.12a49.4,49.4,0,0,0,23.6,14.32c12.33,3.25,25.16.84,36.73-4,23.85-10,44.27-27.8,62.84-45.38,18.72-17.73,36.29-36.79,56.32-53.09s43.18-30.4,68.69-36A101,101,0,0,1,1113.3,157.29ZM729.73,294.8c-4.66,3.54-10.34,8.09-16.58,7.48-2.41-.23-7-3.29-2.78-4.89a62.11,62.11,0,0,1,10.26-2.57c3.73-.7,7.49-1.22,11.26-1.71C731.17,293.67,730.46,294.25,729.73,294.8ZM836.51,266A45.33,45.33,0,0,1,838.45,233c2-4.17,6.1-13.21,11.89-10,5.34,3,6.68,10.11,6.68,15.7,0,12.9-7,25.17-13.32,36-.48.82-1,1.63-1.47,2.45A41.5,41.5,0,0,1,836.51,266Z"/><path class="cls-2" d="M720.56,135.63c2.91-26.13,3.65-52.57,0-78.68-2.81-20.26-9.45-42.88-29.47-52.29a51.79,51.79,0,0,0-48.5,3,44.71,44.71,0,0,0-17.43,20.86c-4.71,11.11-6,23.21-8.66,34.89-5,22.32-17.9,40.87-31.95,58.5-13.87,17.39-29.35,34.54-38.36,55.12a60.65,60.65,0,0,0-5.46,28.24c-8.7-4.28-17.85-7.85-27.56-8.5a38.75,38.75,0,0,0-28.71,10.1c-7.49,6.71-12.74,15.66-16.95,24.68a225.85,225.85,0,0,0-11.81,31.17c-3.34,11.27-5.51,23.53-2.6,35.14,2.54,10.14,9,18.44,17.54,24.3s18.44,9.16,28.38,11.23a161.44,161.44,0,0,0,39.42,3.16c13.47-.55,26.66-3,39.73-6.21s25.9-6.93,39.12-9.07,26.39-2.25,39.36,1.09c9.71,2.5,20.33,6.33,30.35,4-.42.72-.88,1.44-1.38,2.13-3.32,4.58-7.81,8.34-12.21,11.85a123.78,123.78,0,0,1-13.88,9.61,129.21,129.21,0,0,1-30.89,13.4A126.22,126.22,0,0,1,600.19,368c12.91-18.21,33.63-28.79,53.18-38.57,2.28-1.14.28-4.51-2-3.41-6.94,3.35-15.08,3.89-22.6,5-8.12,1.22-15.88,2.94-23.08,7-15.07,8.54-25.54,22.62-38.7,33.52C542.1,392.23,509.41,403,477.2,402.2a132.1,132.1,0,0,1-48.5-10.56c-16.36-6.94-31.42-16.53-46.28-26.17s-29.74-19.54-45.78-27.25A199.9,199.9,0,0,0,286,321.81a208.87,208.87,0,0,0-29.73-3.22l1.76.2a113.41,113.41,0,0,1,26.56,6.77,196.54,196.54,0,0,1,44.62,13.55c16.28,7.19,31.3,16.81,46.19,26.48s29.92,19.59,46.13,27.13a140.1,140.1,0,0,0,47,12.95,141.71,141.71,0,0,0,90.93-23.46,135.17,135.17,0,0,0,18.31-14.93c6.35-6.14,12.37-12.63,19.18-18.26s14.28-10.18,22.86-12.26c5.38-1.31,10.86-2,16.32-2.78-16.13,8.83-31.43,19.36-41.38,35.17a2,2,0,0,0,1.7,3,132.55,132.55,0,0,0,67.13-20c9.53-5.94,20-13.27,26.31-22.78a28.93,28.93,0,0,0,2.59-5c7.86-3.85,14.06-11.75,12.05-20.86-.55-2.48-4.36-1.43-3.81,1,1.3,5.92-1.82,10.84-6.44,14.12,1.86-8,1.53-16.71,2.12-24.68C700.29,240.65,714.63,188.76,720.56,135.63Zm-39,187.44c-12,.35-23.35-5.29-35.14-6.75-24.4-3-48.35,5.15-71.76,10.77-24.76,6-50.29,7.69-75.35,2.29-19.47-4.2-39.71-14.55-43.1-36.16-1.8-11.47,1.19-23.27,4.76-34.1a212.18,212.18,0,0,1,11.71-29.19c4.13-8.18,9.26-16.23,16.55-22,8.93-7,20.11-8.7,31.06-6.21a90.22,90.22,0,0,1,20.94,8.06c.07.4.12.81.19,1.21,2,11.3,7.31,21.88,14.1,31,14.06,18.91,34.4,33.24,56.41,41.38,4.57,1.68,10.72,4.65,15.6,2.66,4.2-1.71,5.23-6.21,4-10.24-1.43-4.77-4.85-8.27-8.31-11.66q-6.87-6.7-14.12-13a332.69,332.69,0,0,0-61-42.14l-3.22-1.71a48.2,48.2,0,0,1,.62-15.58c2.31-11.2,8-21.43,14.19-30.91,5.67-8.66,12.07-16.81,18.56-24.87,12.75-15.84,26.21-31.62,34.83-50.21,4.6-9.92,7.16-20.27,9.21-31,2.09-10.85,4.1-22.16,10.08-31.67,8.77-14,26.07-20.4,42.06-19a42.54,42.54,0,0,1,22.22,8.49c8.16,6.36,13.07,16,16,25.7,3.42,11.23,4.8,23.09,5.66,34.76a299.42,299.42,0,0,1,.35,36.81c-2.44,50-15.11,98.66-22.26,148-1.74,12-3.17,24-4.07,36.09-.65,8.89-.08,18.78-3.09,27.34A22.79,22.79,0,0,1,681.57,323.07ZM545.69,212.17c2.4,1.3,4.78,2.64,7.14,4A331,331,0,0,1,582.29,235a327.29,327.29,0,0,1,27.65,22.18c4.29,3.84,8.5,7.78,12.57,11.86,2.49,2.49,7.67,8.4,5.06,12.22-1.69,2.48-5.28,1.41-7.64.72-2.92-.86-5.81-1.88-8.65-3A122,122,0,0,1,596,271.79a124.3,124.3,0,0,1-27-20.28C558.21,240.84,548.87,227.11,545.69,212.17Z"/><path class="cls-1" d="M331.91,483.61c5.22,0,10.82,0,15.77-.13-.52,2.09-2.21,9.64-3.52,17.72l-1.82.13a51.45,51.45,0,0,0-.91-7.95c-1.05-5.6-3.26-6.77-12.77-6.77H316.54c-4.69,0-5.08.65-5.86,4.95l-6,31.92h15.51c10.16,0,11.07-1,15.5-10.29h1.57l-4.82,24.5h-1.7c-.26-9.26-.78-11.21-11.33-11.21H304l-4.69,25.8c-2.21,12-1.82,12.9,9.9,14.46l-.39,1.56H276.54l.39-1.56c10.68-1.56,11.21-2.61,13.42-14.46l9.9-52.51c2.22-12,2.22-12.9-8.6-14.59l.26-1.57Z"/><path class="cls-1" d="M415.82,569.22h-1.43c-11.34,0-16-2.35-20.59-11.6-2.86-6.25-6-14.46-9.9-23.71-1.43-3.39-2.22-4.43-7.82-4.43h-5.47l-4.3,23.19c-2.22,11.73-1.43,12.51,8.6,14.07l-.52,1.56H343.77l.39-1.56c10-1.56,10.94-2.21,13.16-13.94L368.13,497c1.83-9.64.79-10.42-9.25-11.85l.39-1.57H386c15.25,0,25.28,6.13,25.28,19.42s-10,21.1-20.32,24.62c3.38,8.34,7.29,18.11,9.9,23.59,7,14.59,9.9,14.59,15.24,16.54Zm-38-42.22c14.85,0,23.45-7.69,23.45-23.06,0-9.77-4.56-17.72-15-17.72-5.35,0-7.56.52-8.87,7.56L371.13,527Z"/><path class="cls-1" d="M500.77,568.3H471.32l.39-1.56c9.25-1.69,10.69-2.61,9.64-8.73-1.17-6.77-2.34-15.5-3.9-23.84H451.13c-3,5.73-7.82,14.85-11.86,23.32-3.26,6.78-.39,7.3,7.82,9.25l-.26,1.56h-27.1l.52-1.56c8.2-1.43,10.68-2.34,16.28-12.77L476,482.05l1.7-.26c6.77,41.3,9.51,57.85,12.24,73.48,1.57,8.73,2.48,9.78,11.34,11.47Zm-29.32-71.66h-.26c-6.25,11.47-12.9,23.85-18.5,34.53h24.23Z"/><path class="cls-1" d="M602.78,485.18c-7.68,1.56-10.16,3.12-11.85,9.25-.92,3.12-2.35,9.9-4.95,23.71l-9.65,51.08h-2.21L533.47,496.9l-6.78,37c-2.47,13.68-3.39,19.41-3.91,24.23-.52,5.47.91,6.78,10.43,8.6L533,568.3h-28l.26-1.56c7.69-1.43,10.43-2.74,12-7.69,1.56-4.69,3-11.33,5.73-25.14l7.17-37.4a8.88,8.88,0,0,0-.91-6.51c-1.44-2.35-4.69-3.91-10.3-4.82l.26-1.57H536.2l39.48,69.58,6.52-35.05c2.6-13.81,3.65-20.59,4.17-24.36.78-6-1.57-7-11.21-8.6l.52-1.57H603Z"/><path class="cls-1" d="M671.7,550.06c-1.3,3.91-5.86,14.6-7.55,17.2-3.91.91-12.25,3-20.33,3-21.89,0-36.35-12.64-36.35-37.14,0-27.62,21.63-51.33,50.94-51.33A75.49,75.49,0,0,1,680,485.05c-.91,3.77-1.69,10.16-2.6,18.37l-1.83.13c-.26-15.9-8.21-18.9-19.54-18.9-24.63,0-38.57,24.63-38.57,48.74,0,17.45,7.43,34.26,26.71,34.26,12.9,0,20.2-8.6,25.93-18.37Z"/><path class="cls-1" d="M735.8,483.61c5.35,0,10.17,0,14.6-.13-.65,2.22-2.09,10.3-3.13,17.72l-1.69.13c-.4-11.59-1.7-14.72-13.29-14.72H720c-4.43,0-5.08.78-5.74,5.21l-5.86,30.36h15.25c9.12,0,10.81-1.17,14.72-10.68h1.69l-5.08,25h-1.56c-.26-9.77-1-11.2-9.77-11.2h-15.9L703,552.15c-2.09,11.59-.91,13.16,6.64,13.16h10.95c8.08,0,12.12-.78,15.77-3.78,3.9-3.26,6.12-7,8.33-10.82l1.44.53c-.92,3.12-4.82,12.76-6.65,17.06h-59.8l.39-1.56c10.68-1.43,11.46-2.47,13.55-12.64l10.68-56.68c1.83-9.12,1.83-10.55-9-12.24l.26-1.57Z"/><path class="cls-1" d="M762.25,545.76c.26,12,4.43,21.89,18.76,21.89,12.12,0,17.2-10.68,17.2-18.37,0-7.95-3.26-13.55-11.21-19.93l-4.56-3.65c-7.16-5.74-13.16-11.86-13.16-21.24,0-11.6,9-22.67,24.89-22.67,8,0,15.64,2.47,18.37,3-1,5.73-1.82,11.46-2.6,17.45h-1.83c.26-10.81-3-18.11-15.11-18.11-9.51,0-15.64,7-15.64,17.2,0,7.95,4.56,12.38,11.47,17.85l4.43,3.39c8.86,6.78,14.07,13.68,14.07,22.67,0,13.81-11.73,25-27.23,25-10,0-18.76-4.82-21.24-5.86.52-2.87,1.3-13,1.56-18.51Z"/><path class="cls-1" d="M936.58,485.18c-9.52,1.56-10.69,3.64-12.12,9.64-1.17,4.56-2.74,12.64-8.21,40.65-4.43,22.28-13.68,34.79-35.31,34.79-15.24,0-30.1-8.08-25.15-33.88l7.43-39.09c1.82-9.64,1.69-10.68-8.86-12.11l.39-1.57h30.49l-.26,1.57c-9.77,1.3-10.94,2.21-12.77,11.85l-7.69,40.26c-3.77,19.81,6.65,27.76,19.68,27.76,17.59,0,24.75-11.6,28.4-30.23,5.47-27.23,6.65-36.88,7-40.26.91-6.52-.26-8.21-10.69-9.38l.39-1.57H937Z"/><path class="cls-1" d="M937.87,545.76c.26,12,4.43,21.89,18.77,21.89,12.11,0,17.2-10.68,17.2-18.37,0-7.95-3.26-13.55-11.21-19.93l-4.56-3.65c-7.17-5.74-13.16-11.86-13.16-21.24,0-11.6,9-22.67,24.89-22.67,7.94,0,15.63,2.47,18.37,3-1,5.73-1.83,11.46-2.61,17.45h-1.82c.26-10.81-3-18.11-15.12-18.11-9.51,0-15.63,7-15.63,17.2,0,7.95,4.56,12.38,11.46,17.85l4.43,3.39c8.86,6.78,14.08,13.68,14.08,22.67,0,13.81-11.73,25-27.24,25-10,0-18.76-4.82-21.23-5.86.52-2.87,1.3-13,1.56-18.51Z"/><path class="cls-1" d="M1089.14,485.18c-9.77,1.3-10.94,2.34-12.77,12.37l-10.81,57.07c-1.82,9.51-1.3,10.56,9.12,12.12l-.39,1.56h-30.62l.39-1.56c9.9-1.3,10.81-2.61,12.64-12.12l5.6-30.36h-43.52l-5.47,30.36c-1.95,10-1.43,10.56,8.73,12.12l-.39,1.56H991l.39-1.56c9.77-1.17,11-2.34,12.77-12.12L1015,497.55c1.83-9.77,1.44-10.94-9-12.37l.4-1.57H1037l-.39,1.57c-9.9,1.3-10.94,2.47-12.76,12.37l-4.44,23.72h43.65l4.3-23.72c2-10,.91-11.2-8.86-12.37l.39-1.57h30.62Z"/><path class="cls-1" d="M1142.17,483.61c5.34,0,10.16,0,14.59-.13-.65,2.22-2.08,10.3-3.13,17.72l-1.69.13c-.39-11.59-1.69-14.72-13.29-14.72H1126.4c-4.43,0-5.08.78-5.73,5.21l-5.86,30.36h15.24c9.12,0,10.82-1.17,14.72-10.68h1.7l-5.08,25h-1.57c-.26-9.77-1-11.2-9.77-11.2h-15.9l-4.82,26.84c-2.08,11.59-.91,13.16,6.65,13.16h10.94c8.08,0,12.12-.78,15.77-3.78,3.91-3.26,6.12-7,8.34-10.82l1.43.53c-.91,3.12-4.82,12.76-6.64,17.06H1086l.39-1.56c10.69-1.43,11.47-2.47,13.55-12.64l10.69-56.68c1.82-9.12,1.82-10.55-9-12.24l.26-1.57Z"/><path class="cls-1" d="M1206.4,483.61c24.36,0,39.61,13.16,39.61,34.92,0,16.68-7,31.92-20.72,40.78-10.94,7-19.93,9-35.18,9h-30.36l.39-1.56c10.17-1.82,10.95-2.61,12.77-12.25l10.82-57.07c1.82-9.77,1.43-10.42-8.86-12.24l.26-1.57Zm-24.37,70c-2.08,11.21,5.74,11.86,13.55,11.86,26.84,0,40.52-23.19,40.52-47.17,0-21.11-11.46-32.18-31.53-32.18-8.34,0-10.16,1.43-11.2,7.16Z"/><path class="cls-1" d="M1338.38,517c0,26.45-17.2,53.29-44.69,53.29-19.94,0-32.31-13.81-32.31-36,0-26.84,18.24-52.51,45.47-52.51C1327.57,481.79,1338.38,497.55,1338.38,517Zm-67,18.37c0,18.37,6.25,32.18,23.06,32.18,23.06,0,33.88-31.53,33.88-50.81,0-16.55-4.56-32.32-22.54-32.32C1283,484.39,1271.41,514.36,1271.41,535.34Z"/><path class="cls-1" d="M194.9,426.46q-13.38-2.76-36.2-3.15c-15.47-.26-31.73.26-49,1.31-.27.27-.27.53-.53.79-2.88,8.13-8.13,24.13-16.26,48.26s-16.52,50.62-25.44,79.47-16.26,54.29-22,76.59c-6,22.29-8.13,35.93-6.56,40.65a1.59,1.59,0,0,1,.26,1,2.55,2.55,0,0,1-1.05,1.31,1.18,1.18,0,0,1-1.31,0,3.66,3.66,0,0,1-1.05-.78c-1.83-5.25,0-18.63,5.51-39.87,5.25-21.25,11.28-43.28,18.36-66.1S71.62,526.65,75,516.42c.26-.52.26-1,.52-1.31H75a2.19,2.19,0,0,1-2.1-.52,1.76,1.76,0,0,1-1-1.84q-.4-5.12,4.72-21.25c3.41-10.49,7.87-22,12.85-34.35s9.44-23.09,13.38-32c-24.4,1.57-45.38,3.93-62.95,6.82-17.84,2.88-26.75,6-27,8.91.27,2.36-.26,3.94-1.57,4.73a8.38,8.38,0,0,1-5.25,1.57c-3.93,0-6-1.31-6-3.94-.26-2.36,1.84-4.72,6-6.55,7.09-2.63,19.94-5.25,38-7.87,18.09-2.36,37.76-4.46,59.53-5.77,2.36-5,3.94-8.39,5.25-10.49a3.2,3.2,0,0,1,2.62-1.58,6.19,6.19,0,0,1,2.36,1.58,2.8,2.8,0,0,1,0,2.88c-.52.79-1.57,3.15-3.41,7.08,21.77-1.31,41.18-1.57,58.75-1.31,17.32.53,28.86,2.1,34.89,5,5.51,2.62,6.82,6.29,4.46,11.27-.27.53-.53.79-1,.79a1.18,1.18,0,0,1-1.31,0,2.59,2.59,0,0,1-1.05-1.31c-.26-.26,0-.79.26-1.05C207.23,431.7,203.55,428.56,194.9,426.46ZM87.62,477.87c-.26.52-.26,1.05-.52,1.57-.26.26-.26.26-.26.52-4.46,12.07-7.61,21.25-8.92,27.54C81.33,497.27,84.48,487.31,87.62,477.87Z"/><path class="cls-1" d="M198.31,548.16c.26.26.26.52.52.78a1.45,1.45,0,0,1-.79,1.32c-13.9,10-23.6,15.47-29.63,16.52-6,1.31-9.71,0-11-3.67a31.17,31.17,0,0,1-1.57-12.33,47.29,47.29,0,0,0-.27-6.56c-.26-1.83-1.31-2.62-2.62-2.62-2.36,0-5.77,2.1-9.7,6a140.29,140.29,0,0,0-12.07,14.43c-4.2,5.51-7.87,10.23-10.75,14.69a92.37,92.37,0,0,0-5.51,8.39c-.53,1.05-1.05,1.57-1.84,1.57a1.74,1.74,0,0,1-2.09-.78c-.53-.53-.53-1.31-.27-2.63a.8.8,0,0,1,0-1L111,582c1.83-6.29,5.24-17.31,10.49-33.31,5-16,10.75-32.26,17.31-49s12.59-29.64,18.09-38.56c3.94-5.51,7.61-7.87,10.5-7.08s3.93,4.72,2.62,11.28c-1.84,6.82-5.25,15.21-10.49,24.91-5.51,9.71-11,19.15-16.79,28.07s-10.23,15.47-13.11,19.67Q123.68,556,119.36,569.4A196.2,196.2,0,0,1,138,546.06c6.82-7.08,12.59-10,17.05-8.66a7.57,7.57,0,0,1,3.41,5.25c.26,2.62.52,5.51.52,8.39a24.52,24.52,0,0,0,1.58,11.28c1.31,2.89,4.46,3.67,10,2.1s14.17-6.82,26.49-16A2.9,2.9,0,0,1,198.31,548.16Zm-48.79-61.9c-3.93,9.44-7.61,18.36-10.75,26.75s-5,13.64-5.77,15.48q2.75-2.76,10.23-15c5-8.13,9.7-16.79,14.68-26a141.91,141.91,0,0,0,9.71-22.82c1-4.46.79-6.82-.79-6.56s-3.41,1.84-5.77,5.25A151.81,151.81,0,0,0,149.52,486.26Z"/><path class="cls-1" d="M259.68,548.16c.26.26.52.26.52.52a2,2,0,0,1-.52,1.05c-3.94,2.89-10,6.3-17.84,10.75a117.37,117.37,0,0,1-24.13,10c-8.13,2.36-14.69,2.36-19.41-.26-5.51-3.41-5.77-10.75-1.05-22a31.3,31.3,0,0,1,3.15-5.77c0-.26,0-.26.26-.26a32.26,32.26,0,0,1,2.63-3.68,56,56,0,0,1,7.34-8.13c6-5.51,11.54-6.55,16.26-3.41q3.54,3.54-.79,8.66A34.29,34.29,0,0,1,215.61,544c-4.46,2.36-8.39,3.67-11.28,3.67a12.62,12.62,0,0,1-2.36-.78,28.76,28.76,0,0,1-1.57,2.88c-3.67,8.66-3.67,14.43-.26,17.57,3.93,3.15,9.7,3.41,17.83,1.05a123.08,123.08,0,0,0,23.87-9.7c7.87-4.2,13.64-7.61,17-10.23A1,1,0,0,1,259.68,548.16Zm-55.87-4.46a1,1,0,0,0,.79.26c2.36,0,5.24-1.05,9.18-3.15a42.74,42.74,0,0,0,9.7-7.34c1.31-1.84,1.84-2.88,1.05-3.67C221.65,528,217.71,529,213,533a48.29,48.29,0,0,0-6.82,7.6Z"/></svg>